PathFileType	4	(X/Y/Z)	13_coords_data.trc
DataRate	CameraRate	NumFrames	NumMarkers	Units	OrigDataRate	OrigDataStartFrame	OrigNumFrames
30.0	30.0	4	21	m	30.0	1	51
Frame#	Time	THUMB_TIP	THUMB_IP	THUMB_MCP	THUMB_CMC	INDEX_TIP	INDEX_DIP	INDEX_PIP	INDEX_MCP	MIDDLE_TIP	MIDDLE_DIP	MIDDLE_PIP	MIDDLE_MCP	RING_TIP	RING_DIP	RING_PIP	RING_MCP	PINKY_TIP	PINKY_DIP	PINKY_PIP	PINKY_MCP	WRIST
X1	Y1	Z1	X2	Y2	Z2	X3	Y3	Z3	X4	Y4	Z4	X5	Y5	Z5	X6	Y6	Z6	X7	Y7	Z7	X8	Y8	Z8	X9	Y9	Z9	X10	Y10	Z10	X11	Y11	Z11	X12	Y12	Z12	X13	Y13	Z13	X14	Y14	Z14	X15	Y15	Z15	X16	Y16	Z16	X17	Y17	Z17	X18	Y18	Z18	X19	Y19	Z19	X20	Y20	Z20	X21	Y21	Z21
0	-2.749317978547796e-18	0.46643546673566016	-0.035936631796916196	-0.1743203127631066	0.4726858991618021	-0.03994462793168896	-0.15257478307376848	0.4655555315060276	-0.03715882710375207	-0.12240497745887358	0.4685953819933839	-0.032971170888184576	-0.07809794816966548	0.5612827119055512	0.03511773033842147	-0.1711745499222596	0.55052411494053	0.024806737717467553	-0.16088202727157436	0.5362338128159665	0.010073552806445285	-0.14636547256440213	0.5132560554437785	-0.012801584333951288	-0.11875411872303987	0.5842376908132749	0.05317695673414391	-0.14328865701378735	0.5717947642845655	0.04336562504603103	-0.1345187453889775	0.5520642051083475	0.026140262059215047	-0.1217358875486435	0.5237988020599322	-0.0015726398743680647	-0.10101850407653873	0.5987871094513298	0.04316935901684027	-0.10471006805345912	0.5848351833109882	0.03316737926971214	-0.09920514679039905	0.5667058911358936	0.017583454323506165	-0.09223018962199453	0.5338024062965575	-0.003776581951151492	-0.08244089088444967	0.5992839851793723	0.01712766345750094	-0.042460240075656186	0.5846804157912969	0.009187842980650784	-0.04654619307624952	0.5669647846994793	-0.0006640753549055356	-0.05201502651018741	0.5350825826573746	-0.014701807110746645	-0.061361187812961626	0.46228308100186083	-0.023011742144276925	-0.051989820119430985
1	0.03333333333333339	0.4659652060894453	-0.03631151197472282	-0.1740475743659161	0.472933253623784	-0.04004691038728492	-0.15247228497600013	0.46608835609364446	-0.03692330506974284	-0.12226946279624157	0.46914966394959856	-0.03302316048203191	-0.0779376766106386	0.5620500843813699	0.035317747867318894	-0.17084078183781853	0.5512298658377064	0.025100247822838262	-0.1605196596358291	0.5367993449364222	0.01066100537388781	-0.14584729864592594	0.5136192726017783	-0.012179477414504536	-0.11837672008351063	0.5846491709767607	0.053095628833579434	-0.14281081204646395	0.5722791440878061	0.043196342266588306	-0.1340366134943951	0.5526329606449193	0.026030571012643278	-0.12104533475111201	0.5243702964106461	-0.0017013511045581575	-0.10034967754806057	0.5987531393675326	0.04335517074978723	-0.10367767314025539	0.5847621210664447	0.033429352717125216	-0.09813424971414919	0.5665610364759207	0.017914344975943797	-0.09119270568420362	0.5343720509325676	-0.0045871948560836096	-0.0815869392453662	0.5995397694572268	0.016804052319273066	-0.041440649622581094	0.5848511890855584	0.009011897880181974	-0.04550610603759675	0.5669416053567213	-0.0004540646972319706	-0.05102465495400332	0.5351227740272249	-0.014383821365477667	-0.06074099701202729	0.46228308100186094	-0.023011742144276925	-0.051989820119430985
2	0.06666666666666676	0.46562462817613337	-0.03656664289869138	-0.17381551175846738	0.47312704505295183	-0.04009024847806686	-0.1523842741664051	0.466500745121622	-0.036718058600218484	-0.12215944191463246	0.46957897924549863	-0.03305264520660289	-0.07780880246791755	0.5626025460587338	0.03554014858381305	-0.17055543301547826	0.5517555469112836	0.025359152204892488	-0.1602263516319466	0.5372351258203655	0.011121168528262393	-0.14544639814195082	0.5138922665294903	-0.011679717439806114	-0.11808097080749214	0.5849546978380102	0.05305841315366844	-0.14242828117322653	0.5726463530045554	0.043080734873983784	-0.13365613299801454	0.5530690891065212	0.02595104542136606	-0.12051406209866194	0.5247985381153273	-0.0017819783888255447	-0.09983065672146041	0.5987216832335056	0.043437848048065275	-0.10290068167111671	0.5846917089420609	0.03358809523188766	-0.09732016280262423	0.5664338250771994	0.01812794413901997	-0.09040544054045524	0.5347845147333039	-0.005182839070187573	-0.08093710515723584	0.599759095528021	0.016479850697291965	-0.04067882826936364	0.5849889787859062	0.008832077576760411	-0.044722986738213844	0.5669234734918019	-0.00031538625029714495	-0.05027036837294585	0.5351483473775598	-0.014141579164438922	-0.06027342795114199	0.46228308100186094	-0.023011742144276925	-0.051989820119430985
3	0.10000000000000014	0.4653867333844639	-0.03671834269405905	-0.173639935571951	0.4732653690277563	-0.04008605690153666	-0.15231892242958373	0.4668002277772611	-0.03654085838972876	-0.12207898995408006	0.46989171357281784	-0.033063525509520075	-0.0777141291787311	0.5629690221668942	0.035780283048114314	-0.170320465864974	0.5521253965124499	0.025585686795776552	-0.1600012609577101	0.5375559799829495	0.011468980355058278	-0.1451533474929667	0.5140868364234377	-0.011288877383630047	-0.11786021088815973	0.5851710303143038	0.05306076881957689	-0.1421323983459719	0.5729132361968455	0.043013930116592825	-0.13336840864662708	0.5533914396853631	0.02589968791692865	-0.12012409949531555	0.5251039968227409	-0.0018199145321966537	-0.09944579837176254	0.5987155807402766	0.04344755159910607	-0.1023488297470369	0.5846474755057525	0.03367221879342586	-0.09673355738956851	0.5663462394318253	0.01825384688144649	-0.08984018776722308	0.5350702615275863	-0.005592573306407056	-0.08046563261202272	0.5999489200815453	0.016172995766797094	-0.04014291676739623	0.5851017844057107	0.00866410276566476	-0.04416524048894099	0.5669144593995274	-0.0002317111692659024	-0.04972381247773039	0.5351639897088526	-0.013962179605407798	-0.05993485365606532	0.4622830810018609	-0.023011742144276925	-0.051989820119430985
